<?xml version="1.0" encoding="UTF-8"?>
<svg id="Layer_1" xmlns="http://www.w3.org/2000/svg" version="1.1" viewBox="0 0 300 150">
  <!-- Generator: Adobe Illustrator 29.6.1, SVG Export Plug-In . SVG Version: 2.1.1 Build 9)  -->
  <defs>
    <style>
      .st0 {
        fill: #58595b;
      }
    </style>
  </defs>
  <path class="st0" d="M115.37,60.68s.07-.09.22-.15c.15-.05.3-.1.45-.15.69-.23,1.42-.41,2.19-.57.76-.15,1.53-.29,2.28-.42.76-.13,1.49-.26,2.21-.39.72-.14,1.38-.31,1.99-.51s1.15-.46,1.62-.77c.47-.31.83-.69,1.08-1.15.05-.07.1-.13.14-.18.04-.04.1-.07.18-.07.05,0,.1.02.14.07.04.05.05.1.05.18,0,.04-.02.14-.07.28-.05.14-.11.33-.2.55s-.18.47-.3.76c-.12.29-.24.59-.38.92-.22.52-.5.97-.85,1.33-.35.36-.76.66-1.22.89-.46.23-.98.4-1.55.51-.57.11-1.18.16-1.84.16-.61,0-1.2-.04-1.76-.13-.56-.08-1.09-.19-1.59-.31-.5-.12-.97-.25-1.41-.38-.45-.13-.86-.23-1.24-.31-.11-.03-.16-.08-.16-.16Z"/>
  <path class="st0" d="M149.59,54.49c.02.13.03.3.04.49,0,.19.01.41.01.64,0,.61-.02,1.21-.06,1.78-.04.58-.1,1.14-.16,1.69-.07.55-.14,1.1-.21,1.63-.08.54-.15,1.07-.22,1.59-.15,1.19-.42,2.3-.79,3.33-.37,1.04-.83,1.99-1.38,2.85-.54.86-1.16,1.64-1.85,2.32-.69.68-1.42,1.25-2.19,1.72-.77.47-1.58.83-2.4,1.07-.83.25-1.66.37-2.48.37-1.09,0-2.06-.2-2.91-.61-.85-.41-1.57-.97-2.15-1.68-.58-.72-1.03-1.56-1.34-2.53-.31-.97-.46-2.02-.46-3.15,0-1.59.29-3.21.86-4.85.57-1.64,1.49-3.28,2.76-4.93.31-.39.57-.71.8-.97.23-.26.43-.46.6-.62.17-.16.31-.27.42-.34.11-.07.19-.1.26-.1.05,0,.11,0,.16.03.05.02.08.05.08.11,0,.13-.05.24-.16.35-.86.98-1.56,1.91-2.1,2.78-.54.87-.98,1.69-1.3,2.45-.32.76-.54,1.46-.66,2.1s-.18,1.21-.18,1.71c0,.99.14,1.86.43,2.6.28.74.67,1.36,1.15,1.86.49.5,1.05.87,1.7,1.11.65.25,1.34.37,2.07.37,1.01,0,1.96-.17,2.87-.51.9-.34,1.74-.78,2.51-1.34.77-.55,1.46-1.19,2.07-1.9.61-.71,1.13-1.44,1.57-2.19s.77-1.48,1-2.2c.23-.72.35-1.37.35-1.94,0-.73-.06-1.43-.18-2.11-.12-.68-.35-1.35-.69-2.03-.23-.44-.45-.81-.69-1.12-.23-.31-.45-.58-.63-.82-.2-.24-.36-.47-.49-.69-.13-.22-.19-.46-.19-.74,0-.31.06-.74.18-1.26.12-.53.28-1.2.5-2.03l.14-.03c.29.41.59.75.9,1.01.31.26.64.47.97.63.33.16.67.27,1.01.35.35.08.7.13,1.06.17,1,.13,1.82.25,2.46.36.64.12,1.13.28,1.48.5-.23.42-.51.79-.82,1.11-.31.31-.66.58-1.04.79s-.79.38-1.24.49c-.44.12-.9.19-1.39.23l-.05.05Z"/>
  <path class="st0" d="M155.8,64.23c-.04.24-.12.52-.24.83-.11.31-.23.61-.36.88-.13.28-.24.51-.35.7-.11.19-.18.28-.22.28-.12,0-.27-.04-.45-.12s-.39-.18-.61-.3c-.22-.12-.44-.26-.67-.41-.23-.15-.43-.31-.63-.47-.19-.16-.36-.31-.49-.46s-.22-.28-.26-.38c0-.05.05-.21.16-.47.1-.26.22-.54.36-.85.13-.31.27-.59.42-.85.14-.26.26-.42.34-.47.14.16.33.34.57.55.23.2.49.4.77.59s.56.38.85.55.56.3.81.39ZM157.21,61.31c.37.46.83.87,1.37,1.23.54.36,1.1.64,1.65.85-.19.5-.36.91-.51,1.24s-.28.6-.38.8c-.11.2-.2.35-.26.44s-.12.13-.14.13c-.07,0-.18-.03-.34-.09s-.33-.14-.53-.25c-.2-.11-.41-.23-.63-.37s-.43-.29-.63-.45-.37-.32-.53-.49c-.15-.17-.26-.34-.32-.51,0-.06.04-.21.13-.43.09-.22.19-.47.31-.74.12-.27.25-.53.4-.79.14-.26.28-.45.41-.59Z"/>
  <path class="st0" d="M150.02,54.62c-.99,0-1.85-.13-2.58-.39s-1.28-.72-1.66-1.36c.12-.27.27-.53.45-.78s.38-.47.6-.66c.22-.19.45-.34.7-.45.24-.11.48-.17.72-.17.26,0,.57.03.92.08.35.05.68.08.97.08.73,0,1.45-.15,2.16-.44.71-.29,1.47-.75,2.27-1.37.4-.31.69-.64.89-.97.2-.33.3-.72.3-1.17,0-.16,0-.32-.03-.49-.02-.16-.04-.32-.05-.49.1-.35.22-.73.35-1.13.13-.4.3-.84.49-1.3h.13c.11.48.23.94.37,1.38.14.45.28.87.41,1.26.1.29.22.59.36.89.14.31.33.63.56.97.23.34.54.68.9,1.04.37.36.83.72,1.39,1.1.62.43,1.06.86,1.33,1.28.27.42.4.83.4,1.24v.35c-.22.15-.45.26-.69.32s-.48.09-.72.09c-.41,0-.83-.13-1.26-.39-.44-.26-.85-.59-1.24-.99s-.75-.84-1.06-1.32c-.32-.48-.56-.93-.73-1.35h-.08c-.29.72-.66,1.39-1.12,2.02-.46.63-.98,1.17-1.56,1.63-.58.46-1.2.82-1.86,1.09-.66.27-1.33.4-2.02.4Z"/>
  <path class="st0" d="M173.46,34.7c.44-.04.91-.13,1.39-.27.49-.13.98-.27,1.49-.42.5-.14.99-.26,1.49-.36s.97-.16,1.42-.16c.5,0,.9.16,1.2.47.3.31.45.8.45,1.48,0,.37-.04.73-.11,1.08s-.14.73-.22,1.13c-.21,1.21-.53,2.23-.96,3.09-.43.85-.97,1.6-1.61,2.23-.41.4-.87.78-1.38,1.14-.52.36-1.06.71-1.63,1.03s-1.14.63-1.73.91-1.15.54-1.69.78c-.84,1.21-1.67,2.24-2.49,3.11-.82.86-1.65,1.57-2.46,2.13-.82.55-1.64.96-2.46,1.22-.82.26-1.64.38-2.47.38-.53,0-1.03-.09-1.49-.28-.46-.19-.86-.43-1.2-.72-.34-.29-.6-.61-.79-.97-.19-.35-.28-.69-.28-1.03,0-.23.05-.51.15-.84.1-.32.26-.71.47-1.16h.13c.45.48.93.84,1.44,1.09.51.25,1.05.37,1.61.37.96,0,1.98-.28,3.05-.83s2.2-1.45,3.38-2.68l.03-.11c-.23-.17-.43-.36-.62-.58-.19-.22-.35-.47-.49-.75-.14-.28-.24-.6-.32-.96-.08-.36-.12-.75-.12-1.2,0-1.04.1-1.99.31-2.86.21-.87.54-1.65.99-2.36.27-.45.63-.87,1.09-1.26.45-.39,1.06-.74,1.8-1.03.1-.45.22-.89.35-1.32.14-.43.31-.87.51-1.32.31-.67.62-1.17.93-1.51.31-.34.64-.6,1.01-.78l.16.16c0,.37-.08.73-.25,1.09s-.35.69-.55.99-.38.57-.54.8c-.17.23-.26.41-.26.53,0,.19.11.33.32.43s.52.14.92.14ZM167.47,41.42c0,.26.05.51.16.76.11.24.26.46.47.64.2.18.45.33.76.44s.65.16,1.05.16c.31,0,.61-.03.9-.09.28-.06.57-.15.86-.26.38-.37.71-.76.99-1.16.28-.4.45-.79.5-1.16,0-.7-.18-1.27-.55-1.7-.37-.43-.92-.65-1.67-.65-.41,0-.83.1-1.24.3-.41.2-.78.46-1.11.76-.33.31-.6.63-.8.99s-.31.67-.31.97ZM173.52,42.5c.93-.45,1.78-.91,2.56-1.38s1.45-.93,2-1.38c.55-.45.99-.87,1.3-1.27.31-.4.47-.76.47-1.07,0-.23-.1-.42-.29-.55-.19-.14-.45-.2-.76-.2-.29,0-.64.05-1.05.15s-.84.21-1.27.32c-.44.13-.86.24-1.27.34-.4.1-.75.15-1.03.16l-.05.05c.03.1.05.24.07.43s.03.37.03.55c0,.22-.02.48-.07.78-.05.31-.1.63-.18.97-.07.34-.15.68-.24,1.04s-.18.69-.27.99l.05.08Z"/>
  <path class="st0" d="M181.38,16.82c-.07.23-.18.5-.32.82-.14.32-.29.63-.44.92s-.3.55-.43.76c-.14.21-.23.31-.3.31-.1,0-.28-.06-.55-.19-.27-.13-.56-.29-.88-.49s-.63-.44-.93-.7c-.3-.27-.52-.54-.66-.83,0-.03.02-.11.07-.24.04-.13.1-.29.18-.47.08-.18.17-.38.26-.59.09-.22.18-.42.28-.62.1-.2.2-.38.29-.53.09-.16.18-.27.25-.34.28.29.56.55.85.78.29.23.57.45.85.63.28.19.54.35.8.48.25.13.48.23.69.29v.03Z"/>
  <path class="st0" d="M171.17,34.81c0-.1.03-.31.09-.63.06-.32.21-.76.45-1.32.31-.73.67-1.42,1.06-2.07s.89-1.26,1.51-1.82c.53-.48,1.1-.95,1.71-1.41.61-.46,1.23-.9,1.86-1.32.63-.41,1.26-.8,1.88-1.15.63-.35,1.22-.65,1.8-.9.57-.25,1.11-.45,1.6-.59s.92-.22,1.28-.22c.34,0,.64.04.88.12.25.08.45.19.62.32.16.14.28.29.36.46s.12.35.12.53-.02.38-.07.61c-.04.24-.1.5-.17.78-.07.28-.16.58-.26.88-.1.31-.2.61-.31.9-.02.04-.03.08-.05.11-.01.03-.04.05-.09.05s-.07-.02-.09-.05c-.01-.03-.02-.07-.02-.11,0-.09-.03-.2-.09-.34-.06-.14-.16-.26-.3-.39s-.3-.22-.51-.31c-.2-.09-.44-.13-.72-.13-.36,0-.79.07-1.29.22s-1.04.35-1.63.61c-.58.26-1.2.57-1.84.93-.64.36-1.29.75-1.92,1.17-.64.42-1.26.86-1.86,1.33-.6.47-1.16.94-1.66,1.4-.37.32-.71.68-1.03,1.07-.32.39-.6.8-.86,1.22-.03.04-.06.09-.1.13-.04.04-.1.06-.17.06-.05,0-.09-.02-.12-.06s-.04-.08-.04-.13Z"/>
  <path class="st0" d="M202.85,57.44c-.22.15-.44.26-.68.32-.24.06-.48.09-.72.09-.29,0-.57-.06-.86-.18-.28-.12-.57-.28-.85-.49-.28-.2-.57-.44-.85-.71-.28-.27-.56-.55-.84-.84-.13-.14-.27-.29-.43-.44s-.32-.28-.47-.39c-.15-.11-.29-.2-.41-.28-.13-.07-.22-.11-.28-.11-.15,0-.28.09-.37.26-.09.18-.19.41-.28.72s-.2.65-.32,1.05c-.13.41-.29.83-.5,1.28-.21.45-.47.9-.8,1.37-.32.47-.73.92-1.21,1.35-.53.47-1.07.86-1.63,1.19s-1.1.6-1.65.82c-.54.22-1.07.41-1.59.55-.51.14-1,.26-1.45.36-.45.1-.87.18-1.24.26-.38.07-.7.16-.96.26-.26.07-.47.15-.63.24-.16.09-.29.13-.39.13-.05,0-.11,0-.16-.01-.05,0-.08-.04-.08-.09,0-.08.06-.17.17-.26.12-.09.24-.18.37-.28,1.28-.82,2.43-1.59,3.46-2.32,1.03-.73,1.93-1.41,2.69-2.05,1.27-1.05,2.38-2.23,3.32-3.54.95-1.31,1.67-2.79,2.19-4.46.06-.2.13-.4.19-.59.06-.2.13-.38.22-.53s.17-.28.26-.38c.09-.09.19-.14.31-.14.21,0,.39.08.55.23.16.15.3.34.42.55.22.41.46.79.72,1.16.25.37.53.73.82,1.07.3.34.63.68.99,1.01s.78.65,1.25.98c.62.43,1.06.86,1.33,1.28s.4.83.4,1.24v.35Z"/>
  <path class="st0" d="M199.18,52.98c.45.48.93.84,1.44,1.09.51.25,1.05.37,1.61.37.67,0,1.35-.18,2.04-.54.69-.36,1.43-.87,2.2-1.54.63-.52,1.22-1.15,1.76-1.9.54-.74,1-1.67,1.37-2.78.03-.08.07-.15.13-.21s.12-.09.2-.09c.23,0,.35.14.35.43,0,.26-.04.54-.11.82-.07.29-.11.55-.11.8,0,.35.06.6.19.74.13.14.3.21.51.21.64,0,1.4-.48,2.27-1.43.23-.24.41-.48.55-.72.14-.24.26-.48.35-.73s.17-.5.24-.76c.06-.25.13-.52.22-.81.07-.24.14-.44.22-.59s.17-.22.3-.22.21.04.26.13c.04.09.07.19.07.3,0,.16-.01.33-.04.5-.03.18-.04.34-.04.47,0,.29.08.51.24.68s.37.24.63.24.57-.09.91-.26c.34-.17.72-.5,1.14-.99.25-.28.48-.64.68-1.09.2-.45.38-1.05.53-1.8.08-.4.23-.59.46-.59.13,0,.21.05.24.14.04.09.05.22.05.37,0,.11-.01.24-.04.39-.03.16-.04.31-.04.45,0,.24.13.49.4.74s.6.51,1.01.78c.62.43,1.06.86,1.33,1.28.27.42.4.83.4,1.24v.35c-.22.15-.44.26-.68.32-.24.06-.48.09-.72.09-.27,0-.55-.06-.85-.17-.3-.11-.63-.3-1.01-.56h-.08c-.33.63-.66,1.15-.97,1.57-.31.42-.62.76-.92,1.01-.3.26-.6.44-.89.55-.29.11-.58.16-.87.16-.24,0-.47-.05-.69-.16-.22-.11-.4-.3-.55-.57h-.11c-.4.69-.8,1.28-1.17,1.75-.38.47-.74.86-1.1,1.15-.36.29-.7.5-1.04.63-.34.13-.66.2-.98.2-.29,0-.55-.09-.78-.26-.23-.17-.43-.45-.59-.82h-.11c-.57.85-1.14,1.56-1.71,2.15-.57.59-1.14,1.07-1.71,1.44-.57.37-1.13.64-1.7.8s-1.12.25-1.67.25-1.03-.09-1.49-.28c-.46-.19-.86-.43-1.2-.72-.34-.29-.6-.61-.79-.97-.19-.35-.28-.69-.28-1.03,0-.23.05-.51.15-.84.1-.32.26-.71.47-1.16h.13Z"/>
  <path class="st0" d="M219.4,43.99c.45.48.93.84,1.44,1.09.51.25,1.05.37,1.61.37.9,0,1.83-.22,2.79-.65.96-.43,1.95-1.04,2.96-1.81-.45-.79-.8-1.61-1.05-2.46-.25-.85-.38-1.77-.38-2.75,0-.52.07-1.03.22-1.51.15-.49.38-.93.68-1.32.31-.4.69-.74,1.16-1.03.46-.29,1.01-.5,1.64-.65.76-.17,1.46-.28,2.09-.32s1.2-.07,1.74-.08c.53,0,1.04,0,1.51,0,.48,0,.95-.06,1.43-.16.48-.1.97-.26,1.48-.49.51-.23,1.06-.57,1.67-1.02l.16.08c-.14.51-.29.99-.43,1.44-.14.45-.3.86-.47,1.24-.17.38-.35.73-.56,1.05s-.44.61-.7.87l-.54.54c-.39.75-.84,1.48-1.34,2.2-.51.72-1.07,1.43-1.68,2.12s-1.27,1.38-1.96,2.05c-.7.68-1.43,1.34-2.19,2,.15.5.26,1.03.32,1.57.06.54.09,1.1.09,1.67,0,.05,0,.11-.02.16-.01.05-.04.08-.09.08s-.08-.05-.11-.14c-.19-.51-.38-.97-.56-1.38-.18-.41-.38-.79-.6-1.13h-.08c-1.37,1.07-2.64,1.9-3.8,2.49-1.17.59-2.3.88-3.41.88-.53,0-1.03-.09-1.49-.28-.46-.19-.86-.43-1.2-.72-.34-.29-.6-.61-.79-.97-.19-.35-.28-.69-.28-1.03,0-.23.05-.51.15-.84.1-.32.26-.71.47-1.16h.13ZM229.42,42.07c.5-.38,1.01-.79,1.56-1.25s1.09-.94,1.63-1.44c.54-.51,1.07-1.04,1.58-1.59.51-.55,1-1.12,1.45-1.71l-.05-.05c-.27-.03-.59-.04-.95-.05-.36,0-.73,0-1.11,0-1.07,0-1.97.09-2.71.28s-1.33.42-1.78.72-.77.62-.97.98c-.2.36-.3.72-.3,1.08s.14.77.43,1.29c.28.52.66,1.1,1.14,1.74l.08.03Z"/>
  <path class="st0" d="M242.17,54.44c0,.64.29,1.21.88,1.72.59.51,1.41.95,2.46,1.31s2.29.64,3.72.84c1.43.19,2.99.29,4.69.29,2.67,0,5.5-.19,8.49-.56,2.99-.37,6.12-.92,9.39-1.63,3.27-.71,6.68-1.58,10.22-2.61,3.54-1.03,7.2-2.19,10.97-3.5v.14c-1.13.74-2.12,1.41-2.96,2.03-.84.61-1.59,1.16-2.26,1.65-.67.49-1.29.9-1.86,1.26s-1.14.63-1.73.85c-3.04,1.11-5.98,2.07-8.83,2.9-2.84.82-5.57,1.51-8.2,2.06s-5.14.96-7.55,1.23c-2.4.27-4.68.41-6.83.41-2.01,0-3.8-.11-5.38-.32-1.58-.22-2.92-.54-4.01-.96-1.09-.43-1.93-.96-2.51-1.59s-.87-1.38-.87-2.22c0-.31.05-.64.15-1,.1-.36.23-.74.38-1.13.16-.39.33-.79.53-1.2.19-.41.39-.81.59-1.21.32-.67.63-1.17.93-1.51.31-.34.64-.6,1.01-.78l.16.16c0,.37-.08.73-.25,1.09-.17.36-.35.69-.55.99-.2.31-.38.57-.54.8-.17.23-.26.41-.26.53Z"/>
  <path class="st0" d="M241.12,55.11c0-.1.03-.31.09-.63.06-.32.21-.76.45-1.32.3-.7.64-1.35,1.03-1.94.39-.59.85-1.14,1.38-1.65.17-.16.43-.36.79-.58.36-.22.76-.47,1.21-.74.44-.27.91-.56,1.4-.87.49-.31.96-.63,1.4-.97.45-.33.85-.68,1.21-1.04.36-.36.63-.72.8-1.09.08-.21.16-.44.22-.69s.1-.5.1-.74c0-.4-.05-.86-.15-1.38-.1-.53-.23-1.09-.38-1.69-.16-.6-.34-1.22-.55-1.86-.21-.64-.43-1.28-.65-1.9-.22-.63-.44-1.23-.67-1.81-.23-.58-.43-1.11-.62-1.59h-.08c-.22.26-.37.61-.45,1.05-.08.44-.12.88-.12,1.33,0,.11,0,.21.03.31.02.1.03.18.03.23s0,.11-.03.16c-.02.05-.05.08-.11.08-.07,0-.13-.04-.17-.12-.04-.08-.08-.18-.13-.28-.03-.06-.06-.18-.1-.34-.04-.16-.08-.34-.12-.55s-.07-.41-.09-.63c-.03-.22-.04-.41-.04-.59,0-.49.08-.99.24-1.47s.35-.96.57-1.42c.22-.46.46-.91.72-1.35.24-.43.45-.85.63-1.24h.11c.23.63.49,1.29.77,1.99.27.69.54,1.4.8,2.13.27.73.52,1.46.76,2.19.24.74.46,1.47.64,2.19s.33,1.42.45,2.11c.11.68.17,1.33.17,1.93,0,.83-.04,1.52-.13,2.07-.09.55-.17,1.02-.25,1.42-.04.15-.07.33-.11.54-.05.21-.11.45-.18.72s-.17.57-.29.91c-.12.34-.27.71-.45,1.13-.25.56-.59,1.06-1.03,1.52-.43.45-.91.88-1.44,1.26-.53.39-1.08.75-1.66,1.07s-1.15.64-1.69.94c-.55.3-1.06.58-1.52.86-.46.28-.84.56-1.14.85-.24.23-.47.49-.69.76s-.39.52-.53.76c-.03.04-.06.09-.1.13-.04.04-.1.06-.17.06-.05,0-.09-.02-.12-.06s-.04-.08-.04-.13Z"/>
  <path class="st0" d="M267.29,35.39c-.09.45-.19.84-.31,1.16-.12.32-.25.61-.4.85-.15.24-.32.45-.5.63-.18.18-.38.34-.6.48-.72.49-1.42.85-2.1,1.09-.68.24-1.36.36-2.03.36-.29,0-.53-.02-.74-.05-.2-.04-.38-.08-.55-.12s-.31-.09-.45-.12c-.13-.04-.28-.05-.43-.05-.07,0-.16,0-.26.01-.09,0-.16.01-.2.01s-.08-.01-.12-.04c-.03-.03-.05-.05-.05-.07,0-.03,0-.06.03-.09.02-.03.05-.06.11-.07.35-.08.67-.17.96-.26.3-.09.62-.18.96-.27.6-.16,1.19-.34,1.75-.53.56-.19,1.09-.4,1.59-.65s.97-.52,1.4-.82c.43-.31.82-.65,1.17-1.04.13-.15.23-.29.29-.4.06-.11.09-.25.09-.41,0-.09-.02-.18-.07-.28-.05-.09-.12-.18-.22-.26s-.21-.15-.35-.2c-.14-.05-.29-.07-.47-.07-.32,0-.64.1-.97.29-.33.19-.63.44-.9.74-.18.23-.34.46-.49.68-.15.22-.28.44-.41.67-.12.23-.23.47-.33.72s-.19.52-.28.8l-.05.03-.3-.76s.02-.12.05-.23c.05-.11.09-.23.14-.38s.09-.3.13-.47c.04-.17.06-.34.06-.52,0-.2-.01-.44-.04-.72-.03-.28-.07-.56-.12-.86-.05-.29-.11-.58-.18-.87-.07-.29-.15-.54-.24-.77s-.19-.41-.29-.55-.21-.21-.32-.21-.19.09-.25.28c-.06.19-.11.45-.16.8-.02.08-.03.13-.05.14-.01.01-.04.02-.09.02-.07,0-.11-.07-.11-.22,0-.1,0-.23.01-.39,0-.16.03-.33.05-.51s.06-.36.1-.55.1-.36.16-.51c.1-.24.2-.43.3-.57s.22-.21.34-.21c.15,0,.3.07.44.22.14.14.27.32.38.53.15.28.27.57.35.88.08.31.14.63.18.95.04.32.06.64.07.97,0,.32,0,.64,0,.95,0,.13,0,.27-.03.4-.02.13-.04.25-.05.36l.05.03c.35-.85.79-1.51,1.31-1.99.52-.48,1.08-.72,1.66-.72.25,0,.47.04.66.13.18.09.34.2.46.34.12.14.21.3.26.49s.08.38.08.58c0,.08,0,.18-.01.29,0,.11-.02.23-.03.34-.01.12-.03.23-.05.34-.02.11-.03.2-.04.27Z"/>
  <path class="st0" d="M263.6,51.25s-.07-.02-.09-.05c-.01-.03-.02-.07-.02-.11,0-.24-.09-.49-.26-.73-.18-.24-.37-.5-.59-.77-.22-.27-.41-.56-.59-.87-.18-.31-.26-.65-.26-1.03,0-.28.02-.56.07-.83.04-.27.1-.54.16-.8.06-.26.12-.52.18-.77.06-.24.12-.48.16-.7.13-.67.32-1.24.57-1.72s.55-.88.9-1.19c.35-.31.73-.54,1.15-.68s.86-.22,1.33-.22c.6,0,1.17.13,1.69.4.52.27.98.63,1.36,1.09s.69.99.91,1.59.33,1.24.33,1.92c0,.4-.05.83-.14,1.29s-.19.87-.29,1.25c-.24,1.04-.51,1.92-.8,2.64-.29.72-.61,1.33-.97,1.84s-.75.94-1.18,1.29c-.43.35-.91.68-1.43.99-.33.2-.71.37-1.12.51-.41.14-.84.26-1.27.36-.43.1-.86.18-1.29.25s-.82.12-1.19.16c-.37.04-.68.07-.95.1-.28.03-.48.05-.61.08-.27.04-.5.11-.7.19-.21.07-.36.11-.46.11s-.16-.01-.18-.04c-.02-.03-.03-.07-.03-.12,0-.03.03-.06.08-.1.05-.04.12-.09.2-.13.08-.05.17-.1.26-.14s.17-.09.24-.13c.63-.33,1.33-.7,2.09-1.11.77-.41,1.54-.84,2.32-1.3.78-.46,1.53-.94,2.26-1.45.73-.51,1.38-1.03,1.94-1.56s1.02-1.07,1.36-1.61c.34-.54.51-1.09.51-1.63,0-.36-.07-.74-.22-1.15s-.37-.79-.67-1.14-.67-.64-1.13-.87c-.45-.23-.99-.34-1.6-.34-.35,0-.68.05-.98.14-.3.09-.57.22-.79.36s-.4.31-.53.5-.19.36-.19.53c0,.16.07.33.21.51.14.18.29.37.47.57.17.22.33.45.47.71.14.26.21.54.21.86,0,.41-.06.86-.18,1.36-.12.5-.29,1.02-.53,1.55-.03.05-.05.1-.07.13-.02.04-.06.05-.12.05Z"/>
  <g>
    <path class="st0" d="M283.05,48.51c-.32.69-.65,1.29-1,1.8-.35.51-.7.96-1.05,1.36-.35.4-.74.72-1.16.99s-.86.47-1.32.64c-.46.17-.91.29-1.38.38-.46.09-.9.16-1.32.21-.42.05-.81.1-1.17.15-.36.04-.67.08-.92.15-.32.08-.62.16-.88.24-.26.07-.43.11-.5.11-.05,0-.11,0-.16-.03-.05-.02-.08-.05-.08-.11s.07-.12.2-.19c.13-.07.24-.14.34-.22,2.17-1.22,3.96-2.37,5.38-3.44s2.45-2.07,3.1-3.01v-.05c-.5-.31-.95-.7-1.34-1.18-.39-.48-.72-1.02-.99-1.63-.27-.6-.47-1.26-.61-1.96s-.21-1.45-.21-2.22c0-1.49.29-3.1.86-4.84s1.49-3.65,2.75-5.72h.13c.31.7.66,1.49,1.05,2.38.39.89.76,1.82,1.11,2.77.35.96.65,1.93.88,2.91.24.98.36,1.91.36,2.8,0,1.31-.27,2.73-.81,4.27l.11.11c.96,0,1.57.48,1.81,1.43-.09.37-.23.68-.41.92-.18.24-.41.44-.68.59s-.57.25-.9.32c-.34.06-.7.09-1.09.09h-.11ZM283.05,45.05c.15-.26.28-.55.37-.88.09-.32.14-.72.14-1.2s-.05-.99-.16-1.59c-.1-.6-.27-1.28-.5-2.03-.23-.76-.53-1.59-.9-2.51-.37-.92-.81-1.93-1.34-3.02h-.11c-.54,1.12-.93,2.14-1.16,3.03-.23.9-.35,1.7-.35,2.42,0,.78.11,1.51.32,2.19.21.67.5,1.27.86,1.78s.77.93,1.24,1.26c.47.32.96.53,1.47.61l.11-.05Z"/>
    <path class="st0" d="M286.91,23.5c.28.76.57,1.52.88,2.3.31.78.61,1.57.91,2.36.3.79.58,1.57.86,2.36.27.78.51,1.55.72,2.31.2.76.36,1.49.49,2.21.12.72.18,1.4.18,2.06,0,.62-.04,1.24-.12,1.86s-.16,1.24-.23,1.86c-.16,1.46-.44,2.67-.82,3.65s-.84,1.76-1.36,2.35c-.58.64-1.23,1.12-1.93,1.44s-1.4.48-2.09.48c-.21,0-.42-.02-.64-.05s-.41-.09-.57-.16c-.37-.19-.64-.45-.8-.79-.17-.34-.25-.73-.25-1.18.18-.42.45-.76.82-1.01.37-.25.87-.37,1.51-.37.34,0,.71-.05,1.09-.16.39-.11.77-.26,1.15-.46.38-.2.74-.44,1.08-.73.34-.29.64-.61.9-.97.26-.36.47-.76.62-1.19s.23-.89.23-1.38c0-1.31-.28-2.95-.85-4.94-.57-1.99-1.44-4.34-2.63-7.06h-.08c-.24.43-.42.86-.52,1.29s-.16.84-.16,1.25c0,.37.04.68.11.93.07.25.11.42.11.5,0,.05,0,.11-.01.16,0,.05-.04.08-.09.08s-.11-.04-.16-.11c-.05-.07-.09-.14-.12-.22-.19-.45-.34-.93-.47-1.42-.12-.5-.18-.96-.18-1.38,0-.55.09-1.09.27-1.63.18-.54.39-1.05.64-1.55.25-.5.5-.97.77-1.42s.49-.87.67-1.26h.11Z"/>
  </g>
  <g>
    <path class="st0" d="M46.77,101.11c0,.29-.03.55-.1.77-.06.23-.15.43-.27.62-.11.19-.25.37-.4.54s-.32.34-.49.53c-.18.18-.38.38-.58.59-.2.21-.4.46-.6.73-.4.53-.74,1.05-1.03,1.57-.29.52-.55,1.04-.78,1.55-.23.51-.45,1.02-.64,1.52-.2.5-.42,1-.64,1.48-.22.49-.47.97-.75,1.44-.28.47-.6.93-.98,1.38-.34.41-.71.77-1.11,1.09-.4.32-.83.61-1.29.86-.46.25-.94.47-1.44.65-.5.18-1.02.34-1.55.46-.41.1-.79.2-1.14.3-.35.1-.65.2-.9.29-.26.08-.47.15-.64.21s-.28.08-.33.08c-.03,0-.06,0-.08-.01-.02,0-.03-.03-.03-.06s.01-.06.04-.08c.02-.02.06-.04.11-.08.27-.15.57-.32.91-.52.34-.2.7-.42,1.07-.67s.76-.5,1.15-.77c.39-.27.77-.54,1.14-.82.37-.28.71-.56,1.04-.83.33-.28.62-.54.87-.8.74-.75,1.38-1.5,1.91-2.24.53-.75.99-1.47,1.38-2.17.39-.7.74-1.38,1.04-2.04.29-.65.57-1.26.84-1.83.27-.57.55-1.1.83-1.58.28-.48.61-.89.98-1.24.4-.38.8-.68,1.21-.89.41-.22.81-.32,1.23-.32v.29Z"/>
    <path class="st0" d="M42.35,106.24c.03-.23.06-.46.11-.7.05-.24.11-.48.19-.73.08-.25.17-.51.29-.78.12-.27.26-.54.44-.82.25-.41.52-.77.83-1.08.31-.32.62-.61.93-.87.31-.26.62-.51.91-.75.29-.23.55-.46.78-.7s.41-.5.55-.78c.14-.28.21-.59.21-.94,0-.18-.03-.42-.1-.72s-.14-.64-.24-1.01c-.1-.37-.2-.76-.31-1.17-.11-.41-.22-.82-.31-1.23-.1-.41-.17-.79-.24-1.17-.06-.37-.1-.7-.1-.99,0-.2,0-.4,0-.6,0-.2.02-.4.04-.62.02-.22.05-.46.09-.73.04-.27.09-.57.16-.92.06-.61.15-1.2.29-1.78s.34-1.09.63-1.53c.11-.18.32-.42.62-.73.3-.31.66-.67,1.08-1.07.42-.41.88-.85,1.4-1.33.51-.48,1.03-.99,1.57-1.52.54-.53,1.08-1.08,1.63-1.65.54-.57,1.05-1.13,1.54-1.7.48-.57.92-1.13,1.31-1.69.39-.56.71-1.09.95-1.61.03-.06.06-.11.08-.14.02-.03.04-.05.08-.05s.05,0,.05.02c0,.02,0,.04,0,.07s0,.1-.02.2c-.02.1-.04.22-.06.35s-.05.27-.08.42c-.03.15-.06.27-.08.38-.07.36-.16.69-.26,1s-.23.62-.37.91c-.14.29-.3.58-.48.86s-.37.57-.58.86c-.69.96-1.38,1.83-2.08,2.61s-1.37,1.5-2.02,2.16c-.65.65-1.26,1.25-1.83,1.78-.57.53-1.07,1.02-1.48,1.47-.42.45-.75.87-.99,1.25s-.37.75-.37,1.1c0,.18.02.39.06.65s.1.58.19.96c.09.38.2.84.33,1.38.14.53.3,1.16.49,1.88.13.5.23.93.3,1.29.07.37.1.69.1.97,0,.18,0,.36-.01.52,0,.16-.02.33-.04.49s-.04.34-.08.52-.07.37-.11.58c-.13.65-.28,1.22-.45,1.69-.17.47-.36.88-.56,1.22-.17.29-.37.54-.6.78-.23.23-.48.47-.74.7-.26.24-.53.48-.81.74-.28.26-.55.55-.82.88-.18.22-.36.42-.53.58-.17.16-.33.31-.49.43-.16.12-.31.23-.45.31-.15.08-.29.16-.43.22l-.08-.15Z"/>
    <path class="st0" d="M118.68,75.77c1.19-.65,2.36-.84,3.49-.57,1.14.27,1.97,1.23,2.5,2.89.39,1.42.21,3.03-.56,4.82-.77,1.79-2.09,3.51-3.96,5.14-1.87,1.63-4.26,2.9-7.16,3.81-.42.89-.84,1.77-1.26,2.64-1.84,4.06-3.64,7.66-5.41,10.79-1.77,3.13-3.73,5.49-5.87,7.06-2.14,1.57-4.69,2.05-7.65,1.45,2.03-.56,3.86-1.74,5.49-3.56,1.63-1.81,3.16-4.05,4.59-6.72,1.43-2.66,2.87-5.56,4.32-8.68.34-.72.69-1.45,1.05-2.19-1.85.29-3.79.39-5.8.3-2.02-.09-3.8-.32-5.35-.68-.18.34-.39.78-.65,1.31-.58,1.23-1.42,2.82-2.5,4.77-1.08,1.95-2.49,4.04-4.21,6.27-1.83,2.32-4.11,4.28-6.86,5.87s-5.69,2.48-8.84,2.66c-3.15.18-6.23-.67-9.25-2.56-2.55-1.75-4.29-4.06-5.22-6.93s-1.21-5.92-.83-9.14c.34-3.16,1.48-6.24,3.42-9.26,1.94-3.01,4.71-5.25,8.3-6.73-.6-1.41-.71-2.99-.34-4.76.71-2.58,2.03-4.51,3.97-5.79,1.93-1.29,4.13-2.03,6.59-2.23,2.46-.2,4.83.05,7.12.75,2.46.79,4.82,1.81,7.07,3.06,2.25,1.26,4.29,2.47,6.12,3.65,1.7,1.1,3.11,1.94,4.22,2.51.76-.28,1.63-.43,2.6-.45.97-.02,1.83.15,2.58.5.55.25.93.58,1.16.99.23.41.15.96-.25,1.67-.75,1.13-1.78,1.61-3.09,1.45-1.31-.17-2.44-.51-3.38-1.05-1.53,1.21-2.88,2.9-4.03,5.09-1.15,2.19-2.03,4.11-2.63,5.77,1.57.47,3.42.74,5.53.8s4.09-.16,5.95-.67c.61-1.13,1.28-2.43,2.02-3.9,1.41-2.9,2.79-5.44,4.15-7.61.72-1.08,1.68-1.94,2.87-2.59ZM77.8,84.16c-2.47-.6-4.5-1.78-6.07-3.54-2.77,1.74-4.91,4.22-6.44,7.45-1.53,3.23-2.34,6.59-2.43,10.09-.09,3.5.63,6.54,2.17,9.1s3.98,4.06,7.34,4.48c2.45.15,4.75-.5,6.9-1.95s4.1-3.32,5.84-5.61c1.74-2.29,3.24-4.6,4.49-6.93,1.25-2.33,2.2-4.31,2.84-5.92-.18-.01-.43-.06-.77-.14-.34-.08-.68-.17-1.02-.26-.55-.15-.93-.25-1.16-.29-.55,2.82-1.75,5.44-3.61,7.87-1.86,2.43-4.17,4.47-6.93,6.12-2.05,1.28-4.1,1.91-6.15,1.87-2.04-.03-3.72-1.28-5.02-3.74-.75-1.59-1.15-3.34-1.22-5.25s.33-3.7,1.18-5.36c.85-1.66,2.26-2.89,4.24-3.7,1.55-.58,2.96-.66,4.22-.23,1.27.43,2.02,1.47,2.26,3.12.81-1.76,1.65-2.99,2.5-3.68s2.25-.9,4.18-.64c.01-1.18-.13-2.23-.42-3.16-2.16.79-4.47.88-6.94.29ZM79.8,90.63c-.91,1-1.6,2.36-2.07,4.08-.19.56-.39,1.13-.61,1.71-.05.1-.19.16-.41.18-.22.02-.44,0-.65-.04-.21-.04-.33-.12-.35-.22-.14-2.12-.56-3.64-1.26-4.56-.7-.92-1.5-1.37-2.42-1.34-1.54.1-2.67.8-3.42,2.08-.74,1.29-1.1,2.76-1.07,4.41.03,1.66.43,3.08,1.21,4.29.77,1.21,1.91,1.77,3.41,1.69,3.29-.43,6.05-1.91,8.3-4.42,2.25-2.52,3.71-5.39,4.39-8.63-2.46-.49-4.15-.24-5.06.75ZM96.88,74.36c-2.17-1.39-4.42-2.69-6.74-3.89-2.33-1.2-4.71-1.96-7.14-2.29-3.49-.3-6.2.24-8.14,1.62-1.94,1.38-3.06,3.07-3.35,5.06-.17,1.21-.06,2.29.3,3.25,1.4-.39,2.89-.65,4.49-.78,3.58-.25,6.65.54,9.21,2.38.49-1.29.63-2.57.4-3.83-.23-1.26-.82-2.09-1.77-2.48,1.23-.42,2.36-.26,3.39.48,1.03.74,1.63,1.83,1.81,3.27.18,1.45-.39,3.01-1.69,4.7,1.19,1.61,1.88,3.62,2.07,6.01.25.05.59.13,1.01.23s.86.21,1.31.32c.62.15,1.11.27,1.47.36.46-.81.91-1.66,1.37-2.55.85-1.78,1.83-3.47,2.93-5.09,1.1-1.62,2.49-2.87,4.17-3.76-1.62-.88-3.32-1.88-5.08-3.01ZM78.25,82.99c2.15.39,4.01.04,5.58-1.04-.93-1.34-2.17-2.24-3.72-2.68-1.55-.44-3.24-.45-5.05-.02-.75.18-1.47.43-2.17.76,1.42,1.6,3.21,2.59,5.36,2.98ZM109.96,77.69c.56-.04.78-.22.66-.55-.13-.33-.51-.59-1.16-.78s-1.47-.08-2.47.32c1.42.71,2.41,1.05,2.98,1.01ZM118.13,81.64c-.96,1.71-1.82,3.32-2.57,4.81-.57,1.17-1.04,2.07-1.41,2.7,2.93-1.05,5.17-2.37,6.72-3.96,1.55-1.59,2.52-3.12,2.92-4.59.4-1.48.35-2.58-.15-3.3-.5-.72-1.33-.74-2.5-.04-1.04,1.21-2.04,2.66-3.01,4.38Z"/>
    <path class="st0" d="M124.85,108.6c-1,0-1.72-.41-2.15-1.22-.23-.44-.34-.89-.34-1.35,0-.38.08-.76.23-1.14-.52.56-1.26,1.18-2.21,1.87-1.74,1.23-3.41,1.84-5,1.84-1,0-1.69-.33-2.05-.99-.22-.39-.32-.84-.32-1.35,0-.86.3-1.9.89-3.12l4.62-9.11h3.86c-.24.5-1.81,3.61-4.72,9.34-.74,1.45-1.1,2.47-1.1,3.06,0,.47.25.7.76.7.38,0,.99-.23,1.82-.69.83-.46,1.75-1.13,2.77-2,1.01-.87,1.67-1.56,1.96-2.08l4.22-8.33h3.98l-.17.34c-1.32,2.64-2.33,4.62-3.04,5.96-.9,1.61-1.65,3.17-2.25,4.68-.19.53-.29.96-.29,1.28,0,.46.22.68.67.68.32,0,.78-.17,1.4-.5.62-.33,1.35-.88,2.2-1.64,1.04-.98,1.99-1.98,2.84-3.02.86-1.03,1.47-1.84,1.84-2.43.1-.09.2-.13.3-.13.01,0,.05,0,.11,0,.06,0,.12.04.18.11.06.07.09.14.09.22l-.02.15c-1.41,2.07-2.99,3.93-4.76,5.58-2.33,2.18-4.44,3.27-6.32,3.27Z"/>
    <path class="st0" d="M139.08,108.79c-1.78,0-3.33-.56-4.66-1.69-1.15-1.18-1.73-2.59-1.73-4.22,0-1.38.4-2.62,1.19-3.72.79-1.1,1.94-1.65,3.45-1.67-.41.18-.8.68-1.18,1.52-.47,1.04-.7,2.17-.7,3.41,0,1.92.42,3.3,1.26,4.16.84.86,1.76,1.28,2.76,1.28.1,0,.46-.03,1.08-.09.61-.06,1.16-.56,1.64-1.51.18-.32.27-.68.27-1.08,0-.75-.31-1.63-.93-2.64l-1.83-2.89c-.63-1.05-.95-2.01-.95-2.87,0-1.7.93-2.94,2.8-3.71.77-.34,1.55-.51,2.34-.51.71-.03,1.46.14,2.26.5s1.41,1.02,1.83,1.97c.09.29.13.56.13.82,0,.47-.18.95-.53,1.44s-.94.78-1.75.88l-.23.02c-.43,0-.82-.12-1.17-.35-.35-.23-.55-.59-.6-1.08.01-.29.12-.52.31-.69.2-.17.42-.33.67-.49.76-.39,1.14-.82,1.14-1.29,0-.22-.11-.41-.32-.57-.37-.27-.89-.37-1.58-.31-.69.06-1.23.28-1.64.66-.24.29-.36.68-.36,1.18,0,1.17.63,2.6,1.88,4.3.56.77,1.07,1.61,1.54,2.51.34.76.51,1.46.51,2.09,0,.99-.52,1.97-1.55,2.95-1.03.98-2.6,1.54-4.69,1.69l-.67.02Z"/>
    <path class="st0" d="M149.33,108.6c-.58,0-1.11-.2-1.57-.6-.46-.4-.69-1.04-.69-1.93,0-.79.29-1.78.88-2.97l7.51-14.95c-.38.04-.8.09-1.26.15-1.24.2-2.48.3-3.71.3s-2.25-.29-3.1-.86c-.58-.47-.88-1.03-.88-1.69,0-.11.03-.4.08-.86.06-.46.48-1.03,1.27-1.71.06-.04.13-.06.19-.06.16,0,.25.07.25.21v.06c-.24.6-.36,1.12-.36,1.56,0,.58.21,1.02.65,1.31.74.51,1.72.76,2.95.76h1.05c.37-.01,1.52-.11,3.44-.3l4.38-8.73h4.05c-.51,1.04-1.92,3.87-4.22,8.49,1.22-.15,2.56.05,4.02.61,1.46.56,2.06,1.62,1.8,3.18-.01.13-.07.19-.17.19-.05,0-.1-.02-.15-.08.01-1.26-.58-2.1-1.79-2.52s-2.62-.53-4.24-.31c-2.13,4.24-4.09,8.11-5.88,11.62l-2.17,4.3c-.56,1.17-.84,2-.84,2.51,0,.47.22.7.67.7.8,0,1.99-.72,3.58-2.15,1.04-.98,1.98-1.98,2.83-3.02.85-1.03,1.46-1.84,1.84-2.43.1-.09.2-.13.3-.13.13,0,.23.05.32.15.04.05.06.11.06.17,0,.05-.01.11-.04.17-1.34,2.02-2.92,3.88-4.74,5.58-2.33,2.18-4.44,3.27-6.32,3.27Z"/>
    <path class="st0" d="M157.21,108.6c-.6,0-1.13-.2-1.59-.59-.46-.39-.69-1.02-.69-1.88,0-.8.29-1.81.88-3.03l12.48-24.81h4.05c-4.71,9.32-8.97,17.81-12.8,25.47-.57,1.17-.86,2-.86,2.51,0,.47.22.7.67.7.8,0,1.99-.72,3.58-2.15,1.05-.98,2-1.98,2.85-3.02.85-1.03,1.46-1.84,1.84-2.43.09-.09.18-.13.29-.13.01,0,.05,0,.12,0,.07,0,.13.04.18.11.05.07.08.14.08.22l-.02.15c-1.43,2.11-3.01,3.96-4.74,5.58-2.33,2.18-4.44,3.27-6.32,3.27Z"/>
    <path class="st0" d="M167.1,108.6c-1.78-.16-2.94-.66-3.5-1.49-.56-.83-.67-1.85-.33-3.07s.94-2.49,1.82-3.82c1.14-1.75,2.57-3.19,4.29-4.32s3.62-1.75,5.7-1.87c2.11-.03,3.43.49,3.98,1.55.55,1.06.04,2.36-1.5,3.91-1.14,1.04-2.57,1.77-4.29,2.19s-3.23.34-4.54-.23c1.21.11,2.44-.17,3.72-.87,1.27-.69,2.36-1.5,3.25-2.43s1.36-1.68,1.39-2.27-.6-.73-1.89-.41c-1.61.52-3.12,1.59-4.53,3.2s-2.49,3.29-3.23,5.02c-.82,2.11-.65,3.36.51,3.76s2.69.21,4.57-.58c1.75-.77,3.43-1.86,5.04-3.25,1.61-1.39,2.96-2.85,4.03-4.36.1-.1.21-.15.33-.14.12,0,.21.05.28.14s.08.2.04.34c-1.89,2.64-4.01,4.77-6.37,6.39-1.21.9-2.46,1.59-3.78,2.07-1.31.48-2.97.66-4.97.53Z"/>
  </g>
</svg>